<?xml version="1.0" encoding="UTF-8" standalone="no"?><svg viewBox="0 0 30 30" xmlns="http://www.w3.org/2000/svg" xmlns:xlink="http://www.w3.org/1999/xlink"><style>:root>svg{display:none}:root>svg:target{display:block}</style><svg viewBox="0 0 30 30" id="call-ringing-svgrepo-com" xmlns="http://www.w3.org/2000/svg"><path d="M15 3.082v1.984c2.538 0 5.077.972 7.02 2.914A9.897 9.897 0 0124.934 15h1.984c0-3.054-1.16-6.11-3.484-8.434A11.888 11.888 0 0015 3.082zm-6.78 2.31L6.097 8.429c.334 2.298 2.58 5.906 6.002 9.328 3.568 3.568 7.338 5.856 9.615 6.033l2.885-2.02-4.11-4.109-.707.707c-1.014 1.014-3.92.294-6.168-1.953-2.247-2.247-2.96-5.146-1.945-6.16l.707-.707-4.154-4.154zM15 7.007v1.986c1.533 0 3.066.59 4.242 1.766A5.982 5.982 0 0121.008 15h1.986c0-2.05-.78-4.098-2.338-5.656A7.975 7.975 0 0015 7.006z"/></svg></svg>